<svg width="38" height="38" viewBox="0 0 38 38" fill="none" xmlns="http://www.w3.org/2000/svg">
<circle opacity="0.2" cx="19" cy="19" r="18.7055" transform="rotate(0.909335 19 19)" fill="#10CA00"/>
<circle opacity="0.2" cx="19.0001" cy="18.9998" r="14.2433" transform="rotate(0.909335 19.0001 18.9998)" fill="#10CA00"/>
<circle cx="19.0001" cy="19.0001" r="10.306" fill="#10CA00"/>
<g clip-path="url(#clip0_587_28911)">
<path d="M18.0708 24.2281C18.7036 24.866 19.2912 24.8609 19.924 24.2281L20.6974 23.4597C20.7778 23.3844 20.8481 23.3542 20.9536 23.3542H22.0384C22.9374 23.3542 23.3543 22.9424 23.3543 22.0384V20.9536C23.3543 20.8481 23.3844 20.7778 23.4597 20.6974L24.2231 19.924C24.8659 19.2912 24.8609 18.7036 24.2231 18.0708L23.4597 17.2973C23.3844 17.222 23.3543 17.1467 23.3543 17.0462V15.9564C23.3543 15.0624 22.9424 14.6405 22.0384 14.6405H20.9536C20.8481 14.6405 20.7778 14.6154 20.6974 14.5401L19.924 13.7717C19.2912 13.1338 18.7036 13.1389 18.0708 13.7717L17.2973 14.5401C17.222 14.6154 17.1467 14.6405 17.0462 14.6405H15.9564C15.0574 14.6405 14.6405 15.0524 14.6405 15.9564V17.0462C14.6405 17.1467 14.6154 17.222 14.5401 17.2973L13.7717 18.0708C13.1338 18.7036 13.1388 19.2912 13.7717 19.924L14.5401 20.6974C14.6154 20.7778 14.6405 20.8481 14.6405 20.9536V22.0384C14.6405 22.9374 15.0574 23.3542 15.9564 23.3542H17.0462C17.1467 23.3542 17.222 23.3844 17.2973 23.4597L18.0708 24.2281ZM18.1511 21.5261C17.9954 21.5261 17.895 21.4759 17.8197 21.3905L16.1422 19.5272C16.0719 19.4469 16.0317 19.3464 16.0317 19.241C16.0317 19.0049 16.2125 18.8291 16.4687 18.8291C16.6043 18.8291 16.7047 18.8743 16.7951 18.9698L18.126 20.4413L20.7125 16.8001C20.813 16.6545 20.9134 16.5942 21.0892 16.5942C21.3353 16.5942 21.5111 16.775 21.5111 17.0111C21.5111 17.0964 21.4759 17.1969 21.4206 17.2772L18.4926 21.3704C18.4173 21.4658 18.3018 21.5261 18.1511 21.5261Z" fill="white"/>
</g>
<defs>
<clipPath id="clip0_587_28911">
<rect width="12" height="12" fill="white" transform="translate(13 13)"/>
</clipPath>
</defs>
</svg>
