<svg width="14" height="14" viewBox="0 0 14 14" fill="none" xmlns="http://www.w3.org/2000/svg">
<path d="M7.00039 1.90002C8.65039 1.90002 8.87539 1.90002 9.55039 1.90002C10.1504 1.90002 10.4504 2.05002 10.6754 2.12502C10.9754 2.27502 11.2004 2.35002 11.4254 2.57502C11.6504 2.80002 11.8004 3.02502 11.8754 3.32502C11.9504 3.55002 12.0254 3.85002 12.1004 4.45002C12.1004 5.12502 12.1004 5.27502 12.1004 7.00002C12.1004 8.72502 12.1004 8.87502 12.1004 9.55002C12.1004 10.15 11.9504 10.45 11.8754 10.675C11.7254 10.975 11.6504 11.2 11.4254 11.425C11.2004 11.65 10.9754 11.8 10.6754 11.875C10.4504 11.95 10.1504 12.025 9.55039 12.1C8.87539 12.1 8.72539 12.1 7.00039 12.1C5.27539 12.1 5.12539 12.1 4.45039 12.1C3.85039 12.1 3.55039 11.95 3.32539 11.875C3.02539 11.725 2.80039 11.65 2.57539 11.425C2.35039 11.2 2.20039 10.975 2.12539 10.675C2.05039 10.45 1.97539 10.15 1.90039 9.55002C1.90039 8.87502 1.90039 8.72502 1.90039 7.00002C1.90039 5.27502 1.90039 5.12502 1.90039 4.45002C1.90039 3.85002 2.05039 3.55002 2.12539 3.32502C2.27539 3.02502 2.35039 2.80002 2.57539 2.57502C2.80039 2.35002 3.02539 2.20002 3.32539 2.12502C3.55039 2.05002 3.85039 1.97502 4.45039 1.90002C5.12539 1.90002 5.35039 1.90002 7.00039 1.90002ZM7.00039 0.775024C5.27539 0.775024 5.12539 0.775024 4.45039 0.775024C3.77539 0.775024 3.32539 0.925025 2.95039 1.07502C2.57539 1.22502 2.20039 1.45002 1.82539 1.82502C1.45039 2.20002 1.30039 2.50002 1.07539 2.95002C0.925391 3.32502 0.850391 3.77502 0.775391 4.45002C0.775391 5.12502 0.775391 5.35002 0.775391 7.00002C0.775391 8.72502 0.775391 8.87502 0.775391 9.55002C0.775391 10.225 0.925391 10.675 1.07539 11.05C1.22539 11.425 1.45039 11.8 1.82539 12.175C2.20039 12.55 2.50039 12.7 2.95039 12.925C3.32539 13.075 3.77539 13.15 4.45039 13.225C5.12539 13.225 5.35039 13.225 7.00039 13.225C8.65039 13.225 8.87539 13.225 9.55039 13.225C10.2254 13.225 10.6754 13.075 11.0504 12.925C11.4254 12.775 11.8004 12.55 12.1754 12.175C12.5504 11.8 12.7004 11.5 12.9254 11.05C13.0754 10.675 13.1504 10.225 13.2254 9.55002C13.2254 8.87502 13.2254 8.65002 13.2254 7.00002C13.2254 5.35002 13.2254 5.12502 13.2254 4.45002C13.2254 3.77502 13.0754 3.32502 12.9254 2.95002C12.7754 2.57502 12.5504 2.20002 12.1754 1.82502C11.8004 1.45002 11.5004 1.30002 11.0504 1.07502C10.6754 0.925025 10.2254 0.850024 9.55039 0.775024C8.87539 0.775024 8.72539 0.775024 7.00039 0.775024Z" fill="#111111"/>
<path d="M7.00039 3.77502C5.20039 3.77502 3.77539 5.20002 3.77539 7.00002C3.77539 8.80002 5.20039 10.225 7.00039 10.225C8.80039 10.225 10.2254 8.80002 10.2254 7.00002C10.2254 5.20002 8.80039 3.77502 7.00039 3.77502ZM7.00039 9.10002C5.87539 9.10002 4.90039 8.20002 4.90039 7.00002C4.90039 5.87502 5.80039 4.90002 7.00039 4.90002C8.12539 4.90002 9.10039 5.80002 9.10039 7.00002C9.10039 8.12502 8.12539 9.10002 7.00039 9.10002Z" fill="#111111"/>
<path d="M10.3004 4.45002C10.7146 4.45002 11.0504 4.11424 11.0504 3.70002C11.0504 3.28581 10.7146 2.95002 10.3004 2.95002C9.88618 2.95002 9.55039 3.28581 9.55039 3.70002C9.55039 4.11424 9.88618 4.45002 10.3004 4.45002Z" fill="#111111"/>
</svg>
