<svg width="173" height="23" viewBox="0 0 173 23" fill="none" xmlns="http://www.w3.org/2000/svg">
<g clip-path="url(#clip0_2018_11092)">
<path d="M56.1078 22.7387C55.1486 22.7387 54.2339 22.7387 53.4498 22.7387C51.4294 22.2212 50.3892 20.4204 50.3709 18.3295C50.3265 13.7269 50.3265 9.1243 50.3735 4.52169C50.3944 2.54056 51.4007 1.15532 53.3191 0.653504C54.3645 0.282378 55.525 0.292832 56.6332 0.282378C61.9754 0.230106 67.3203 0.227492 72.6626 0.282378C73.8596 0.295446 75.0279 0.347708 76.1884 0.653504C77.95 1.11612 79.0346 2.57715 79.0529 4.38839C79.1026 9.07725 79.1131 13.7661 79.0529 18.455C79.0216 20.802 77.3515 22.4512 74.6202 22.7361C74.1681 22.7832 73.7708 22.7359 73.3291 22.7361C67.5921 22.7387 61.85 22.7387 56.1078 22.7387ZM58.975 11.4086C58.975 12.6579 59.0534 13.9099 58.9541 15.1513C58.8548 16.4137 59.5291 16.9469 60.6007 16.9731C63.3371 17.0384 66.0762 17.0358 68.8127 16.9757C69.7876 16.9548 70.5482 16.5209 70.5325 15.3186C70.4985 12.7363 70.5116 10.1541 70.522 7.5718C70.5273 6.48975 69.9366 5.96964 68.9251 5.95657C66.1442 5.92521 63.3633 5.91737 60.5824 5.95657C59.5265 5.97225 58.9044 6.48191 58.9619 7.66328C59.0246 8.90998 58.975 10.1619 58.975 11.4086Z" fill="white"/>
<path d="M152.929 22.7385C152.184 22.2083 152.195 21.1939 152.184 20.4176C152.121 14.354 152.148 8.29036 152.15 2.22673C152.15 0.601045 152.5 0.258658 154.11 0.256044C155.543 0.253431 156.978 0.256044 158.41 0.256044C160.762 0.256044 160.945 0.441613 160.945 2.84615C160.945 6.8032 160.942 10.7602 160.945 14.7147C160.948 16.7716 161.193 17.0147 163.261 17.0147C165.822 17.0173 168.386 17.0408 170.947 17.0042C172.186 16.9859 172.675 17.5949 172.686 18.7292C172.693 19.461 172.686 19.9266 172.686 20.5861C172.686 21.898 172.761 22.7385 170.947 22.7385C164.685 22.7359 159.191 22.7385 152.929 22.7385Z" fill="white"/>
<path d="M27.5789 22.7708C28.3787 22.0547 28.4728 21.3019 28.0128 20.2852C25.1848 14.0439 22.4144 7.77638 19.6518 1.50365C19.278 0.654221 18.7945 0.238652 17.7987 0.262176C15.2478 0.324903 12.6943 0.283085 9.93164 0.283085C10.1381 0.824108 10.2662 1.21354 10.4361 1.58729C13.4365 8.22853 16.437 14.8698 19.4557 21.5032C19.6622 21.9554 19.8635 22.4771 20.2712 22.7708C22.7071 22.7708 25.143 22.7708 27.5789 22.7708Z" fill="#D7D7D7"/>
<path d="M150.421 22.7708C151.22 22.0547 151.315 21.3019 150.855 20.2852C148.027 14.0439 145.256 7.77638 142.494 1.50365C142.12 0.654221 141.636 0.238652 140.64 0.262176C138.09 0.324903 135.536 0.283085 132.773 0.283085C132.98 0.824108 133.108 1.21354 133.278 1.58729C136.278 8.22853 139.279 14.8698 142.298 21.5032C142.504 21.9554 142.836 22.7385 143.113 22.7708C145.549 22.7708 147.985 22.7708 150.421 22.7708Z" fill="#D7D7D7"/>
<path d="M123.44 22.7388C122.431 22.1559 122.308 21.398 122.781 20.3525C125.633 14.0249 128.429 7.67377 131.286 1.35138C131.485 0.912289 132.018 0.32422 132.41 0.311152C135.17 0.219674 137.938 0.261492 140.954 0.261492C140.23 1.89502 139.603 3.33775 138.955 4.77263C136.427 10.3606 133.902 15.9459 131.354 21.5234C131.15 21.9678 130.813 22.6081 130.486 22.7388C128.137 22.7388 125.787 22.7388 123.44 22.7388Z" fill="white"/>
<path d="M39.3293 22.7759C39.8575 22.4771 40.1474 21.8951 40.38 21.3776C43.1635 15.2068 45.9157 9.0229 48.6652 2.83642C49.4833 0.996409 49.0154 0.293341 47.0108 0.290728C45.4034 0.288114 43.778 0.267205 42.1912 0.267205C41.0412 0.201864 40.4898 0.672319 40.0611 1.68641C38.7961 4.68426 37.4475 7.65074 36.1041 10.6172C34.6509 13.8215 33.1716 17.0154 31.6949 20.2066C31.261 21.1423 31.1434 22.0153 32.0242 22.7759C34.4601 22.7759 36.8934 22.7759 39.3293 22.7759Z" fill="#D7D7D7"/>
<path d="M97.091 22.7759C97.6192 22.4771 97.9091 21.8951 98.1417 21.3776C100.925 15.2068 103.677 9.0229 106.427 2.83642C107.245 0.996409 106.777 0.293341 104.772 0.290728C103.165 0.288114 101.555 0.356069 99.9529 0.267205C98.8029 0.201864 98.2515 0.672319 97.8228 1.68641C96.5578 4.68426 95.2092 7.65074 93.8658 10.6172C92.4126 13.8215 90.9333 17.0154 89.4566 20.2066C89.0227 21.1423 88.9051 22.0153 89.7859 22.7759C92.2218 22.7759 94.6551 22.7759 97.091 22.7759Z" fill="#D7D7D7"/>
<path d="M117.999 22.7759C118.527 22.4771 118.817 21.8951 119.05 21.3776C121.833 15.2068 124.586 9.0229 127.335 2.83642C128.153 0.996409 127.685 0.293341 125.681 0.290728C124.073 0.288114 122.463 0.356069 120.861 0.267205C119.711 0.201864 119.16 0.672319 118.731 1.68641C117.466 4.68426 116.117 7.65074 114.774 10.6172C113.321 13.8215 111.841 17.0154 110.365 20.2066C109.931 21.1423 109.813 22.0153 110.694 22.7759C113.13 22.7759 115.563 22.7759 117.999 22.7759Z" fill="#D7D7D7"/>
<path d="M0.780581 22.7708C-0.0191933 22.0547 -0.113284 21.3019 0.346717 20.2852C3.17467 14.0439 5.94512 7.77638 8.70774 1.50365C9.08149 0.654221 9.56501 0.238652 10.5608 0.262176C13.1117 0.324903 15.6652 0.283085 18.4279 0.283085C18.2214 0.824108 18.0933 1.21354 17.9234 1.58729C14.923 8.22853 11.9225 14.8698 8.90376 21.5032C8.69728 21.9554 8.49342 22.4771 8.08831 22.7708C5.6524 22.7708 3.21649 22.7708 0.780581 22.7708Z" fill="white"/>
<path d="M31.5779 22.7387C31.1022 22.6081 30.7598 21.8579 30.5272 21.3404C27.7437 15.1696 24.9915 8.98578 22.242 2.7993C21.4239 0.959299 21.8918 0.256232 23.8964 0.253618C25.5038 0.251005 27.0511 0.230096 28.716 0.230096C29.866 0.164755 30.4174 0.635208 30.8461 1.6493C32.1111 4.64714 33.4597 7.61362 34.8031 10.5801C36.2563 13.7844 37.7356 16.9783 39.2123 20.1695C39.6462 21.1052 39.7638 21.9782 38.883 22.7387C36.4471 22.7387 34.0138 22.7387 31.5779 22.7387Z" fill="white"/>
<path d="M109.608 22.7387C109.119 22.6079 108.847 22.0173 108.646 21.5782C105.593 14.8612 102.569 8.13106 99.5454 1.40095C99.4069 1.09516 99.2318 0.760481 99.0566 0.261277C101.971 0.261277 104.856 0.216972 107.648 0.321519C108.055 0.3372 108.57 1.04027 108.8 1.53163C110.188 4.52424 111.495 7.55345 112.854 10.5617C114.32 13.8105 115.807 17.0514 117.302 20.2871C117.728 21.2071 117.726 22.0252 116.916 22.7361C114.477 22.7387 112.044 22.7387 109.608 22.7387Z" fill="white"/>
<path d="M89.5122 22.7388C88.9947 22.3468 88.6706 21.5627 88.3805 20.9171C85.657 14.8535 82.9598 8.77938 80.2625 2.70528C79.4575 0.89665 79.8835 0.258923 81.883 0.256309C83.5761 0.254096 85.3356 0.261586 86.9691 0.243241C87.8577 0.222332 88.3883 0.509831 88.7673 1.35926C91.5822 7.67119 94.431 13.9701 97.3086 20.2585C97.7686 21.2647 97.7686 22.0619 96.8199 22.7388C94.384 22.7388 91.9481 22.7388 89.5122 22.7388Z" fill="white"/>
<path d="M15.8496 21.9917C16.0137 22.3388 15.7607 22.7388 15.3768 22.7388H12.8478C12.464 22.7388 12.211 22.339 12.375 21.992C12.7803 21.1345 13.2049 20.2322 13.6388 19.3069C13.8271 18.9056 14.3982 18.9055 14.5864 19.3069C15.0176 20.2265 15.4414 21.1281 15.8496 21.9917Z" fill="white"/>
<path d="M138.17 21.9917C138.334 22.3388 138.081 22.7388 137.697 22.7388H135.168C134.784 22.7388 134.531 22.339 134.695 21.992C135.101 21.1345 135.525 20.2322 135.959 19.3069C136.147 18.9056 136.718 18.9055 136.907 19.3069C137.338 20.2265 137.762 21.1281 138.17 21.9917Z" fill="white"/>
</g>
<defs>
<clipPath id="clip0_2018_11092">
<rect width="172.761" height="23" fill="white"/>
</clipPath>
</defs>
</svg>
